# xmcd CD database file
#
# Track frame offsets:
#	150
#	22072
#	32555
#	51780
#	73312
#	92167
#	108060
#	123312
#	135747
#	166647
#	189597
#	199745
#	218187
#	244810
#	261877
#	281175
#
# Disc length: 3979 seconds
#
# Revision: 6
# Processed by: cddbd v1.5.2PL0 Copyright (c) Steve Scherf et al.
# Submitted via: CDex 1.51
#
DISCID=ec0f8910
DTITLE=Wes Montgomery - Finest Hour
DYEAR=2000
DGENRE=Jazz
TTITLE0=Bumpin' on Sunset
TTITLE1=The Shadow of Your Smile
TTITLE2=Up and At It
TTITLE3=Once I loved
TTITLE4=Milestones
TTITLE5=Movin' Wes - part 1
TTITLE6=Tequila
TTITLE7=Watch What Happens
TTITLE8=Bumpin'
TTITLE9=Impressions
TTITLE10=Goin' Out of My Head
TTITLE11=Sunny
TTITLE12=A Day in the Life
TTITLE13=Down Here on the Ground
TTITLE14=Twisted Blues
TTITLE15=Road Song
EXTD=YEAR: 2000
EXTT0=
EXTT1=
EXTT2=
EXTT3=
EXTT4=
EXTT5=
EXTT6=
EXTT7=
EXTT8=
EXTT9=
EXTT10=
EXTT11=
EXTT12=
EXTT13=
EXTT14=
EXTT15=
PLAYORDER=
